<svg width="241" height="26" viewBox="0 0 241 26" fill="none" xmlns="http://www.w3.org/2000/svg">
<path fill-rule="evenodd" clip-rule="evenodd" d="M12.9103 25.815C20.0405 25.815 25.8207 20.0361 25.8207 12.9075C25.8207 5.77889 20.0405 0 12.9103 0C5.78016 0 0 5.77889 0 12.9075C0 20.0361 5.78016 25.815 12.9103 25.815Z" fill="#4D76A1"/>
<path fill-rule="evenodd" clip-rule="evenodd" d="M12.4227 18.5686H13.436C13.436 18.5686 13.7421 18.535 13.8983 18.3666C14.0422 18.212 14.0376 17.9216 14.0376 17.9216C14.0376 17.9216 14.0178 16.5622 14.6488 16.362C15.2709 16.1649 16.0697 17.6759 16.9164 18.2568C17.5566 18.6965 18.0432 18.6001 18.0432 18.6001L20.307 18.5686C20.307 18.5686 21.4913 18.4957 20.9298 17.5647C20.8838 17.4886 20.6028 16.8761 19.2466 15.6175C17.8271 14.3002 18.0171 14.5133 19.7271 12.2347C20.7685 10.8471 21.1848 9.99987 21.0548 9.63702C20.9307 9.29143 20.1648 9.38277 20.1648 9.38277L17.6158 9.39865C17.6158 9.39865 17.4268 9.37288 17.2867 9.45663C17.1498 9.53877 17.0616 9.73021 17.0616 9.73021C17.0616 9.73021 16.6582 10.804 16.1201 11.7173C14.9851 13.6442 14.5312 13.7459 14.3457 13.6263C13.9142 13.3474 14.0219 12.506 14.0219 11.9082C14.0219 10.0408 14.3052 9.26221 13.4703 9.06065C13.1932 8.99369 12.9893 8.94952 12.2807 8.94238C11.3712 8.93295 10.6014 8.94514 10.1655 9.15867C9.87551 9.30063 9.65182 9.617 9.78806 9.63518C9.95652 9.65773 10.3381 9.73803 10.5404 10.0134C10.8016 10.3687 10.7924 11.1666 10.7924 11.1666C10.7924 11.1666 10.9424 13.3649 10.4419 13.638C10.0983 13.8253 9.62696 13.4429 8.61504 11.6947C8.09654 10.7992 7.70507 9.80936 7.70507 9.80936C7.70507 9.80936 7.62959 9.62437 7.49496 9.52543C7.33156 9.40555 7.10326 9.36736 7.10326 9.36736L4.68104 9.38323C4.68104 9.38323 4.31742 9.39336 4.18394 9.55143C4.06519 9.69201 4.17451 9.98284 4.17451 9.98284C4.17451 9.98284 6.07085 14.4185 8.21805 16.6538C10.1869 18.7032 12.4227 18.5686 12.4227 18.5686Z" fill="white"/>
<path fill-rule="evenodd" clip-rule="evenodd" d="M84.0652 25.9998C91.078 25.9998 96.7629 20.1796 96.7629 13C96.7629 5.82038 91.078 0.000152588 84.0652 0.000152588C77.0525 0.000152588 71.3676 5.82038 71.3676 13C71.3676 20.1796 77.0525 25.9998 84.0652 25.9998Z" fill="#FFC107"/>
<path fill-rule="evenodd" clip-rule="evenodd" d="M79.1731 12.9557C78.7657 13.7717 79.2283 14.1618 80.2837 14.8282C81.1809 15.3929 82.4204 15.5995 83.2167 15.6821L82.5494 16.3363C81.6036 17.2539 80.7064 18.1424 80.079 18.758C79.1658 19.6499 80.6359 21.0808 81.5485 20.2079L84.0189 17.7801C84.9646 18.7072 85.8712 19.5957 86.4893 20.2113C87.4024 21.0876 88.8719 19.6688 87.9687 18.7614L85.4983 16.3397L84.8217 15.6855C85.6279 15.6029 86.8488 15.3841 87.7354 14.8315L87.7348 14.8309C88.7902 14.1611 89.2527 13.7717 88.8513 12.9557C88.6087 12.4925 87.9547 12.1051 87.0841 12.7749C87.0841 12.7749 85.9084 13.6925 84.0122 13.6925C82.1154 13.6925 80.9403 12.7749 80.9403 12.7749C80.0697 12.1017 79.413 12.4925 79.1731 12.9557Z" fill="white"/>
<path fill-rule="evenodd" clip-rule="evenodd" d="M88.2093 8.34862C88.2093 10.6146 86.3218 12.4552 84.0102 12.4552C81.698 12.4552 79.8105 10.6146 79.8105 8.34862C79.8105 6.0732 81.698 4.23254 84.0102 4.23254C86.3218 4.23254 88.2093 6.0732 88.2093 8.34862ZM86.0725 8.34862C86.0725 7.22581 85.1461 6.31767 84.0102 6.31767C82.8737 6.31767 81.9472 7.22513 81.9479 8.34862C81.9479 9.46195 82.8744 10.3701 84.0102 10.3701C85.1461 10.3701 86.0725 9.46195 86.0725 8.34862Z" fill="white"/>
<path fill-rule="evenodd" clip-rule="evenodd" d="M119.702 25.9998C126.72 25.9998 132.41 20.1796 132.41 13C132.41 5.82038 126.72 0.000152588 119.702 0.000152588C112.684 0.000152588 106.995 5.82038 106.995 13C106.995 20.1796 112.684 25.9998 119.702 25.9998Z" fill="#41B4E6"/>
<path fill-rule="evenodd" clip-rule="evenodd" d="M132.41 13.0002C132.41 12.6834 132.398 12.3695 132.376 12.0584L127.11 6.67062L112.295 12.6323L117.963 18.4311L118.038 18.7049L118.134 18.6056L118.134 18.606L118.038 18.7049L124.308 25.1195C129.049 23.2324 132.41 18.518 132.41 13.0002Z" fill="#0091C8"/>
<path fill-rule="evenodd" clip-rule="evenodd" d="M118.469 14.8941L124.211 19.3297L127.11 6.67062L112.295 12.6323L116.803 14.1598L125.03 8.51419L118.469 14.8941Z" fill="white"/>
<path fill-rule="evenodd" clip-rule="evenodd" d="M116.803 14.1598L118.038 18.705L118.468 14.8941L125.03 8.51419L116.803 14.1598Z" fill="#D2D2D7"/>
<path fill-rule="evenodd" clip-rule="evenodd" d="M120.335 16.3357L118.038 18.705L118.468 14.8941L120.335 16.3357Z" fill="#B9B9BE"/>
<path fill-rule="evenodd" clip-rule="evenodd" d="M155.034 26C162.052 26 167.742 20.1797 167.742 13C167.742 5.8203 162.052 0 155.034 0C148.016 0 142.327 5.8203 142.327 13C142.327 20.1797 148.016 26 155.034 26Z" fill="#6F3FAA"/>
<path fill-rule="evenodd" clip-rule="evenodd" d="M160.547 7.13188C157.454 6.36763 154.356 5.47367 151.184 6.60945C149.13 7.39732 149.13 9.67343 149.216 11.5994C149.216 12.1246 148.617 12.825 148.873 13.4377C149.387 15.1886 149.814 16.9394 151.611 17.8148C151.868 17.9899 151.611 18.3401 151.783 18.6027C151.697 18.6027 151.526 18.6903 151.526 18.7778C151.526 19.1974 151.71 19.8392 151.588 20.253L157.048 25.8369C162.662 24.9223 167.049 20.2475 167.666 14.4151L160.547 7.13188Z" fill="#512D84"/>
<path fill-rule="evenodd" clip-rule="evenodd" d="M161.753 9.11961L161.757 9.13678C162.176 11.0979 162.176 13.0866 161.757 15.0477L161.752 15.0648C161.413 16.469 159.882 17.9759 158.476 18.2893L158.461 18.2927C157.324 18.5145 156.179 18.6253 155.034 18.6253C154.698 18.6253 154.361 18.6145 154.024 18.5952L152.472 20.2461C152.087 20.6555 151.411 20.3769 151.411 19.8095V18.242C150.058 17.8467 148.641 16.4091 148.316 15.0648L148.312 15.0476C147.892 13.0866 147.892 11.0978 148.312 9.13678L148.316 9.11961C148.656 7.71546 150.187 6.20858 151.592 5.89511L151.608 5.89175C153.882 5.44803 156.187 5.44803 158.461 5.89175L158.477 5.89511C159.882 6.20858 161.413 7.71536 161.753 9.11961ZM158.216 17.0288C159.139 16.8184 160.301 15.6794 160.528 14.7633C160.906 12.9907 160.906 11.1938 160.528 9.42115C160.301 8.50501 159.14 7.36609 158.216 7.15565C156.105 6.74483 153.964 6.74483 151.853 7.15565C150.929 7.36609 149.767 8.50501 149.54 9.42115C149.162 11.1937 149.162 12.9907 149.54 14.7632C149.767 15.6794 150.929 16.8183 151.853 17.0287L151.853 17.0289C151.895 17.0372 151.924 17.0736 151.924 17.1165V19.7133C151.924 19.843 152.079 19.9071 152.167 19.813L153.373 18.5472L154.507 17.3567C154.523 17.339 154.547 17.3293 154.571 17.33C155.788 17.3645 157.007 17.264 158.216 17.0288Z" fill="white"/>
<path fill-rule="evenodd" clip-rule="evenodd" d="M157.043 15.9619C156.901 15.9178 156.766 15.8882 156.64 15.8349C155.338 15.2822 154.14 14.5693 153.191 13.4764C152.651 12.855 152.229 12.1533 151.872 11.4108C151.702 11.0587 151.559 10.6928 151.414 10.3292C151.281 9.9977 151.477 9.65523 151.682 9.40538C151.875 9.17093 152.124 8.99157 152.393 8.85928C152.603 8.75609 152.81 8.81561 152.963 8.99766C153.295 9.39132 153.599 9.80508 153.846 10.2614C153.998 10.5421 153.956 10.8851 153.681 11.0761C153.614 11.1226 153.553 11.1771 153.491 11.2295C153.437 11.2755 153.385 11.3219 153.348 11.3841C153.28 11.4979 153.276 11.6322 153.32 11.7559C153.659 12.7087 154.23 13.4496 155.168 13.8486C155.318 13.9125 155.468 13.9868 155.641 13.9662C155.931 13.9316 156.024 13.6068 156.227 13.4372C156.425 13.2714 156.679 13.2692 156.892 13.4074C157.106 13.5457 157.313 13.6941 157.519 13.8442C157.721 13.9914 157.922 14.1354 158.108 14.3033C158.287 14.4648 158.349 14.6765 158.248 14.8955C158.063 15.2968 157.794 15.6305 157.407 15.8435C157.297 15.9036 157.167 15.923 157.043 15.9619C157.167 15.923 156.901 15.9178 157.043 15.9619Z" fill="white"/>
<path fill-rule="evenodd" clip-rule="evenodd" d="M155.038 8.40053C156.741 8.44938 158.14 9.60562 158.44 11.3281C158.491 11.6216 158.509 11.9217 158.532 12.2196C158.541 12.3449 158.472 12.4639 158.34 12.4656C158.203 12.4672 158.142 12.3503 158.133 12.2252C158.115 11.9773 158.103 11.7282 158.07 11.4824C157.893 10.1845 156.882 9.11071 155.619 8.88031C155.429 8.84563 155.235 8.83654 155.042 8.81587C154.92 8.80282 154.761 8.7953 154.734 8.64052C154.711 8.51078 154.818 8.40749 154.939 8.40084C154.972 8.39885 155.005 8.40043 155.038 8.40053C155.005 8.40043 156.741 8.44938 155.038 8.40053Z" fill="white"/>
<path fill-rule="evenodd" clip-rule="evenodd" d="M157.626 11.833C157.623 11.8548 157.622 11.9059 157.609 11.9541C157.564 12.129 157.305 12.1508 157.245 11.9744C157.227 11.922 157.225 11.8624 157.225 11.806C157.224 11.4371 157.146 11.0684 156.964 10.7473C156.777 10.4173 156.491 10.14 156.156 9.97203C155.954 9.87057 155.734 9.80745 155.512 9.76992C155.415 9.75347 155.317 9.74356 155.22 9.72965C155.102 9.71284 155.038 9.63581 155.044 9.51667C155.049 9.40506 155.129 9.32467 155.248 9.33163C155.639 9.35427 156.016 9.44081 156.364 9.629C157.07 10.0118 157.474 10.616 157.592 11.4229C157.597 11.4595 157.606 11.4957 157.608 11.5323C157.615 11.6228 157.619 11.7135 157.626 11.833C157.619 11.7135 157.623 11.8547 157.626 11.833Z" fill="white"/>
<path fill-rule="evenodd" clip-rule="evenodd" d="M156.567 11.7908C156.424 11.7934 156.348 11.7127 156.333 11.5791C156.323 11.486 156.315 11.3915 156.293 11.3008C156.25 11.1222 156.158 10.9568 156.011 10.8474C155.942 10.7957 155.863 10.7581 155.781 10.7337C155.676 10.7028 155.568 10.7113 155.463 10.6852C155.35 10.6568 155.288 10.563 155.305 10.4544C155.322 10.3555 155.416 10.2783 155.521 10.2861C156.182 10.3349 156.654 10.6841 156.721 11.4793C156.726 11.5355 156.731 11.5947 156.719 11.6485C156.698 11.7403 156.632 11.7863 156.567 11.7908C156.632 11.7863 156.424 11.7934 156.567 11.7908Z" fill="white"/>
<path fill-rule="evenodd" clip-rule="evenodd" d="M161.757 9.13676L161.753 9.1196C161.562 8.33244 160.997 7.51313 160.29 6.88974L159.334 7.75647C159.903 8.21985 160.39 8.86178 160.528 9.42108C160.906 11.1937 160.906 12.9906 160.528 14.7633C160.302 15.6794 159.139 16.8183 158.216 17.0288C157.007 17.264 155.788 17.3645 154.571 17.33C154.547 17.3293 154.523 17.3389 154.507 17.3567C154.334 17.5381 153.373 18.5471 153.373 18.5471L152.168 19.813C152.079 19.9071 151.925 19.8431 151.925 19.7133V17.1165C151.925 17.0736 151.895 17.0372 151.853 17.0289C151.853 17.0289 151.853 17.0288 151.853 17.0288C151.328 16.9092 150.726 16.4896 150.263 15.9816L149.318 16.8379C149.908 17.4945 150.669 18.0253 151.411 18.2421V19.8096C151.411 20.377 152.087 20.6556 152.472 20.2462L154.024 18.5953C154.361 18.6146 154.698 18.6253 155.034 18.6253C156.179 18.6253 157.324 18.5146 158.461 18.2928L158.476 18.2895C159.882 17.976 161.413 16.4692 161.752 15.065L161.757 15.0478C162.176 13.0866 162.176 11.0979 161.757 9.13676Z" fill="#D1D1D1"/>
<path fill-rule="evenodd" clip-rule="evenodd" d="M157.056 16.0016C157.217 15.925 156.871 15.9147 157.056 16.0016V16.0016Z" fill="white"/>
<path fill-rule="evenodd" clip-rule="evenodd" d="M158.108 14.3032C157.922 14.1354 157.721 13.9913 157.519 13.8441C157.313 13.694 157.106 13.5456 156.892 13.4073C156.679 13.2691 156.425 13.2713 156.227 13.4371C156.024 13.6067 155.931 13.9315 155.641 13.9661C155.468 13.9867 155.318 13.9123 155.168 13.8485C154.591 13.6031 154.153 13.2277 153.823 12.7538L153.12 13.3911C153.144 13.4193 153.166 13.4484 153.191 13.4763C154.14 14.5692 155.338 15.2822 156.64 15.8348C156.766 15.8881 156.901 15.9178 157.043 15.9618C156.901 15.9177 157.167 15.923 157.043 15.9618C157.167 15.923 157.297 15.9034 157.407 15.8434C157.795 15.6303 158.063 15.2966 158.248 14.8954C158.349 14.6764 158.287 14.4647 158.108 14.3032Z" fill="#D1D1D1"/>
<path fill-rule="evenodd" clip-rule="evenodd" d="M155.07 8.80512C155.067 8.80512 155.064 8.80412 155.061 8.80412C155.058 8.80345 155.062 8.80412 155.07 8.80512Z" fill="white"/>
<path fill-rule="evenodd" clip-rule="evenodd" d="M155.038 8.80347C155.039 8.80347 155.041 8.80447 155.042 8.80447C155.137 8.82714 156.674 9.11147 155.038 8.80347Z" fill="white"/>
<path fill-rule="evenodd" clip-rule="evenodd" d="M157.481 9.43704L157.181 9.70877C157.652 10.1775 157.977 10.7987 158.07 11.4823C158.103 11.7282 158.115 11.9772 158.133 12.2251C158.142 12.3504 158.203 12.4672 158.34 12.4656C158.472 12.4639 158.541 12.3449 158.531 12.2196C158.509 11.9217 158.491 11.6216 158.44 11.3281C158.308 10.5741 157.966 9.92866 157.481 9.43704Z" fill="#D1D1D1"/>
<path fill-rule="evenodd" clip-rule="evenodd" d="M157.592 11.4227C157.506 10.8347 157.268 10.355 156.872 9.98944L156.573 10.2604C156.727 10.4007 156.861 10.5655 156.964 10.7472C157.146 11.0683 157.224 11.437 157.225 11.8059C157.225 11.8623 157.227 11.9219 157.245 11.9744C157.305 12.1509 157.564 12.1291 157.609 11.9541C157.622 11.9058 157.623 11.8547 157.626 11.833C157.623 11.8548 157.619 11.7135 157.626 11.833C157.619 11.7135 157.615 11.6228 157.608 11.5322C157.606 11.4954 157.597 11.4593 157.592 11.4227Z" fill="#D1D1D1"/>
<path fill-rule="evenodd" clip-rule="evenodd" d="M157.653 12.4035C157.64 11.6188 157.647 12.5458 157.653 12.4035V12.4035Z" fill="white"/>
<path fill-rule="evenodd" clip-rule="evenodd" d="M156.598 12.1265C156.602 12.1255 156.607 12.1178 156.611 12.1161C156.599 12.1161 156.58 12.1171 156.561 12.1195C156.574 12.1205 156.585 12.1268 156.598 12.1265Z" fill="white"/>
<path fill-rule="evenodd" clip-rule="evenodd" d="M156.616 12.1265C156.603 12.1271 156.592 12.1208 156.58 12.1195C156.52 12.1251 156.458 12.1361 156.616 12.1265Z" fill="white"/>
<path fill-rule="evenodd" clip-rule="evenodd" d="M156.599 12.1161C156.594 12.1178 156.59 12.1255 156.585 12.1265C156.619 12.1188 156.616 12.1161 156.599 12.1161Z" fill="white"/>
<path fill-rule="evenodd" clip-rule="evenodd" d="M156.266 10.5384L155.962 10.8142C155.979 10.8246 155.995 10.8355 156.011 10.8473C156.158 10.9568 156.251 11.1222 156.293 11.3008C156.315 11.3915 156.323 11.4859 156.334 11.5791C156.348 11.7067 156.418 11.7852 156.549 11.7897C156.558 11.7895 156.568 11.7893 156.573 11.7892C156.636 11.7821 156.699 11.7371 156.719 11.6484C156.731 11.5947 156.726 11.5353 156.721 11.4792C156.683 11.0346 156.519 10.7296 156.266 10.5384Z" fill="#D1D1D1"/>
<path fill-rule="evenodd" clip-rule="evenodd" d="M191.569 25.815C198.7 25.815 204.48 20.0361 204.48 12.9075C204.48 5.77889 198.7 0 191.569 0C184.439 0 178.659 5.77889 178.659 12.9075C178.659 20.0361 184.439 25.815 191.569 25.815Z" fill="#55ACEE"/>
<path fill-rule="evenodd" clip-rule="evenodd" d="M199.477 9.27623C198.924 9.52151 198.329 9.6874 197.705 9.76149C198.342 9.37977 198.831 8.77579 199.062 8.05492C198.466 8.40857 197.805 8.66512 197.102 8.8034C196.539 8.20402 195.737 7.82944 194.849 7.82944C193.145 7.82944 191.763 9.21112 191.763 10.9147C191.763 11.1565 191.791 11.3919 191.844 11.6178C189.279 11.4892 187.005 10.261 185.483 8.39384C185.217 8.84942 185.065 9.37977 185.065 9.9451C185.065 11.0152 185.61 11.96 186.438 12.5131C185.932 12.4972 185.456 12.3585 185.04 12.1268C185.04 12.1399 185.04 12.153 185.04 12.1659C185.04 13.6608 186.104 14.9076 187.515 15.1909C187.257 15.2618 186.984 15.2993 186.703 15.2993C186.503 15.2993 186.31 15.2802 186.122 15.2443C186.515 16.4697 187.654 17.3618 189.005 17.3869C187.948 18.2145 186.618 18.7076 185.172 18.7076C184.923 18.7076 184.677 18.6931 184.436 18.6643C185.801 19.54 187.423 20.0506 189.166 20.0506C194.842 20.0506 197.946 15.3494 197.946 11.272C197.946 11.1383 197.943 11.0051 197.937 10.873C198.541 10.4382 199.064 9.89494 199.477 9.27623Z" fill="#F1F2F2"/>
<path d="M227.659 26C234.838 26 240.659 20.1797 240.659 13C240.659 5.8203 234.838 0 227.659 0C220.479 0 214.659 5.8203 214.659 13C214.659 20.1797 220.479 26 227.659 26Z" fill="#F8C84E"/>
<path fill-rule="evenodd" clip-rule="evenodd" d="M222.459 7.79999H232.859C233.574 7.79999 234.159 8.38499 234.159 9.09999V16.9C234.159 17.615 233.574 18.2 232.859 18.2H222.459C221.744 18.2 221.159 17.615 221.159 16.9V9.09999C221.159 8.38499 221.744 7.79999 222.459 7.79999ZM227.659 13.65L232.859 10.4V9.09999L227.659 12.35L222.459 9.09999V10.4L227.659 13.65Z" fill="white"/>
<path fill-rule="evenodd" clip-rule="evenodd" d="M48.9075 25.815C56.0361 25.815 61.815 20.0361 61.815 12.9075C61.815 5.77889 56.0361 0 48.9075 0C41.7789 0 36 5.77889 36 12.9075C36 20.0361 41.7789 25.815 48.9075 25.815Z" fill="#3B5998"/>
<path fill-rule="evenodd" clip-rule="evenodd" d="M52.1525 13.4128H49.8493V21.8506H46.3598V13.4128H44.7001V10.4474H46.3598V8.52846C46.3598 7.15621 47.0116 5.00742 49.8803 5.00742L52.4652 5.01823V7.89664H50.5897C50.2821 7.89664 49.8495 8.05034 49.8495 8.70494V10.4502H52.4573L52.1525 13.4128Z" fill="white"/>
</svg>
